<?xml version="1.0" encoding="utf-8"?>
<!-- Generator: Adobe Illustrator 19.0.1, SVG Export Plug-In . SVG Version: 6.00 Build 0)  -->
<svg version="1.1" xmlns="http://www.w3.org/2000/svg" xmlns:xlink="http://www.w3.org/1999/xlink" x="0px" y="0px"
	 viewBox="-2527 2372.5 256 256" style="enable-background:new -2527 2372.5 256 256;" xml:space="preserve">
<style type="text/css">
	.st0{fill:#C9C5C5;}
	.st1{fill:#FFFFFF;}
</style>
<g id="Layer_1">
	<rect x="-2527" y="2372.5" class="st0" width="256" height="256"/>
	<path class="st1" d="M-2407,2477c-0.2,0.2-0.3,0.4-0.3,0.7l-1,3.7l-3.7,0.3v3.2c0,0.6-0.4,1-1,1h-3.7c-0.6,0-1,0.4-1,1v5.6
		c0,0.5-0.4,0.9-0.9,1l-1.5,0.2c-0.5,0.1-0.9,0.5-0.9,1v10.1c0,0.6-0.4,1-1,1h-2c-0.6,0-1,0.4-1,1v23.3c0,0.6-0.4,1-1,1h-1.3
		c-0.6,0-1,0.4-1,1v31c0,0.6,0.4,1,1,1h56.3c0.6,0,1-0.4,1-1v-29.6c0-0.6-0.4-1-1-1h-2.7c-0.6,0-1-0.4-1-1v-24c0-0.6-0.4-1-1-1h-1.3
		c-0.6,0-1-0.4-1-1v-10.7c0-0.6-0.4-1-1-1h-0.3c-0.6,0-1-0.4-1-1v-4.3c0-0.6-0.4-1-1-1h-3.7c-0.6,0-1-0.4-1-1v-4c0-0.6-0.4-1-1-1
		h-1.3c-0.6,0-1-0.4-1-1v-1.3c0-0.6-0.4-1-1-1h-0.3c-0.6,0-1-0.4-1-1v-4.3c0-0.6-0.4-1-1-1l0,0c-0.6,0-1-0.4-1-1v-3.7h-1.3v-20.7
		c0-0.2-0.1-0.4-0.2-0.5l-2.5-3.9c-0.2-0.3-0.6-0.5-0.9-0.5l-2.1,0.2c-0.4,0-0.7,0.3-0.8,0.6l-1.7,3.9c-0.1,0.1-0.1,0.3-0.1,0.4
		v19.5c0,0.6-0.4,1-1,1l0,0c-0.6,0-1,0.4-1,1v3c0,0.6-0.4,1-1,1h-0.3c-0.6,0-1,0.4-1,1v1.3"/>
</g>
<g id="Layer_2">
	<path d="M-2371.8,2529.3v-25h-4.2V2492h-3.4v-6.2h-5v-5.5h-3.7v-2.7c0-0.8-0.7-1.5-1.5-1.5h-0.6v-5.7h-1.6v-4.8h-1.4v-20.9h-1.2
		v-1.3c0-0.3-0.1-0.5-0.2-0.7l-1.3-2.4c-0.3-0.5-0.8-0.8-1.3-0.8h-0.2v-23c0-0.8-0.7-1.5-1.5-1.5c-0.8,0-1.5,0.7-1.5,1.5v23h-0.2
		c-0.5,0-1,0.3-1.3,0.8l-1.3,2.4c-0.1,0.2-0.2,0.5-0.2,0.7v1.3h-1.2v20.9h-1.4v4.8h-1.6v5.7h-0.6c-0.8,0-1.5,0.7-1.5,1.5v2.7h-3.7
		v5.5h-5v6.2h-3.4v12.3h-4.2v25h-3.3v36.6h60.9v-36.5H-2371.8z M-2374.9,2529.3h-2.1v-17.7h-3v17.7h-1.5v-17.7h-3v17.7h-2.1v-22
		h11.8C-2374.9,2507.4-2374.9,2529.3-2374.9,2529.3z M-2393.2,2473.5v2.7h-4.4v-28.3h1.4v20.9h1.4v4.8H-2393.2z M-2400.5,2443.9
		l0.7-1.2h1.6l0.7,1.2v0.9h-3V2443.9z M-2404.8,2473.5h1.6v-4.8h1.4v-20.9h1.1v28.3h-4.1V2473.5z M-2406.9,2479.1h15.7v1.2h-15.7
		V2479.1z M-2410.6,2483.4h23.2v2.5h-23.2V2483.4z M-2415.6,2488.9h33.1v3.1h-33.1V2488.9z M-2423.1,2507.4h11.8v22h-2.1v-17.7h-3
		v17.7h-1.5v-17.7h-3v17.7h-2.1V2507.4z M-2409.6,2562.9h-2.4v-28.6h-3v28.6h-1.5v-28.6h-3v28.6h-1.5v-28.6h-3v28.6h-2.4v-30.5h0.3
		h16.5V2562.9z M-2393.1,2562.9v-63.4c0-0.8-0.7-1.5-1.5-1.5c-0.8,0-1.5,0.7-1.5,1.5v63.4h-1.5v-63.4c0-0.8-0.7-1.5-1.5-1.5
		c-0.8,0-1.5,0.7-1.5,1.5v63.4h-1.5v-63.4c0-0.8-0.7-1.5-1.5-1.5c-0.8,0-1.5,0.7-1.5,1.5v63.4h-1.5v-33.5h-1.8v-25h-2v-4.1h-3v4.1
		h-5.6v-9.3h39.9v9.3h-5.9v-4.1h-3v4.1h-1.7v25h-1.8v33.5H-2393.1z M-2371.6,2562.9h-2.4v-28.6h-3v28.6h-1.5v-28.6h-3v28.6h-1.5
		v-28.6h-3v28.6h-2.4v-30.5h16.5h0.3V2562.9z"/>
</g>
</svg>
